# xmcd
#
# Track frame offsets: 
#        300
#        15014
#        34221
#        55390
#        72184
#        87553
#        104234
#        126091
#        141760
#        164829
#
# Disc length: 2502 seconds
#
# Revision: 3
# Processed by: cddbd v1.5.2PL0 Copyright (c) Steve Scherf et al.
# Submitted via: ExactAudioCopy v1.0b1
#
DISCID=9109c20a
DTITLE=Johnny Copeland - Flyin' High
DYEAR=1992
DGENRE=Blues
TTITLE0=Flyin' High (Yesterday)
TTITLE1=Hooked, Hog-Tied and Collared
TTITLE2=Greater Man
TTITLE3=Jambalaya (On The Bayou)
TTITLE4=San Antone
TTITLE5=Thigpen (Cornball)
TTITLE6=Promised Myself
TTITLE7=Love Song
TTITLE8=Circumstances
TTITLE9=Around The World
EXTD=YEAR: 1992 ID3G: 0
EXTT0=
EXTT1=
EXTT2=
EXTT3=
EXTT4=
EXTT5=
EXTT6=
EXTT7=
EXTT8=
EXTT9=
PLAYORDER=
